<svg xmlns="http://www.w3.org/2000/svg" xmlns:xlink="http://www.w3.org/1999/xlink" width="201.538" height="31.619" viewBox="0 0 201.538 31.619">
  <defs>
    <clipPath id="clip-path">
      <path id="Path_7" data-name="Path 7" d="M300.416,101.094c-1.927,1.306-3.079,2.928-2.547,3.644s2.525.231,4.452-1.075,3.079-2.928,2.547-3.644a1,1,0,0,0-.886-.316h-.054a7.063,7.063,0,0,0-3.512,1.391m-10.632-2.781c-3.743,1.475-6.335,3.665-5.8,4.908s4.009,1.053,7.753-.4c3.743-1.475,6.335-3.666,5.8-4.909-.243-.548-1.063-.821-2.237-.821h-.105a15.536,15.536,0,0,0-5.41,1.223m17.144-1.475c-.664,1.2-.864,2.338-.465,2.528.4.211,1.262-.611,1.927-1.812s.864-2.338.465-2.528a.292.292,0,0,0-.133-.021H308.7c-.445,0-1.186.773-1.776,1.833m-5.4-3.328c-1.284.695-1.949,1.875-1.506,2.633.465.758,1.861.78,3.145.084s1.949-1.875,1.506-2.633A1.471,1.471,0,0,0,303.34,93a3.9,3.9,0,0,0-1.816.506m4.74-1.6c-.377.611-.355,1.285.066,1.517.4.232,1.041-.105,1.4-.716.377-.611.355-1.285-.066-1.517a.64.64,0,0,0-.288-.063,1.566,1.566,0,0,0-1.107.779M301.5,89.275a1.466,1.466,0,0,0,1.573,1.327,1.346,1.346,0,1,0-1.573-1.327m-10.565,0c0,1.643,1.949,2.971,4.363,2.971,2.392.021,4.341-1.306,4.341-2.971,0-1.643-1.949-2.97-4.363-2.97-2.392,0-4.341,1.327-4.341,2.97m15.438-4.192c-.4.232-.421.906-.067,1.517.377.611,1,.927,1.4.716.4-.231.421-.906.066-1.517a1.434,1.434,0,0,0-1.107-.779.307.307,0,0,0-.059-.006.53.53,0,0,0-.229.069m-6.29-2.718c-.465.759.221,1.938,1.506,2.633s2.68.674,3.145-.084-.221-1.938-1.506-2.633a3.9,3.9,0,0,0-1.816-.506,1.446,1.446,0,0,0-1.329.59m6.379-3.223c-.4.211-.2,1.327.465,2.528s1.529,2,1.927,1.812c.4-.211.2-1.327-.465-2.528-.6-1.074-1.351-1.833-1.794-1.833a.3.3,0,0,0-.133.021m-22.482-3.855c-.531,1.243,2.06,3.434,5.8,4.908s7.2,1.643,7.752.4c.532-1.243-2.06-3.434-5.8-4.908a16.375,16.375,0,0,0-5.515-1.222c-1.174,0-1.993.274-2.237.822m13.866-1.517c-.532.716.62,2.338,2.547,3.644s3.92,1.791,4.452,1.075-.62-2.339-2.547-3.645a7.341,7.341,0,0,0-3.566-1.39,1.059,1.059,0,0,0-.886.316" fill="none"/>
    </clipPath>
    <linearGradient id="linear-gradient" x1="-11.155" y1="2.309" x2="-11.146" y2="2.309" gradientUnits="objectBoundingBox">
      <stop offset="0" stop-color="#003aff"/>
      <stop offset="0.247" stop-color="#0067ff"/>
      <stop offset="0.803" stop-color="#02d6ff"/>
      <stop offset="1" stop-color="#02ffff"/>
    </linearGradient>
  </defs>
  <g id="BtcturkPro" transform="translate(-591.462 -1850)" opacity="0.502">
    <g id="BtcturkPro-2" data-name="BtcturkPro" transform="translate(307.55 1776.545)">
      <g id="Group_16" data-name="Group 16">
        <g id="Group_13" data-name="Group 13">
          <g id="Group_12" data-name="Group 12" clip-path="url(#clip-path)">
            <rect id="Rectangle_4" data-name="Rectangle 4" width="25.804" height="32" transform="translate(283.45 73.455)" fill="url(#linear-gradient)"/>
          </g>
        </g>
        <g id="Group_15" data-name="Group 15">
          <path id="Path_8" data-name="Path 8" d="M314.361,79.145h7.305c4.014,0,6.787,2.08,6.787,5.4A4.25,4.25,0,0,1,325.86,88.6a4.965,4.965,0,0,1,3.855,4.975c0,3.624-2.931,5.833-7.553,5.833h-7.846Zm7.057,8.385c2.029,0,3.45-.965,3.45-2.7s-1.421-2.7-3.45-2.7h-3.45v5.4Zm.654,8.856c2.39,0,3.946-1.051,3.946-3.045,0-1.887-1.624-2.981-4.014-2.981h-4.058v6.026Zm17.632.3a2.73,2.73,0,0,0,1.669-.429v2.981a5.525,5.525,0,0,1-2.728.536c-3.044,0-4.87-1.737-4.87-4.718V88.066h-2.683v-.472l6.133-6.026h.09v3.667h4.013v2.852h-3.946v6.369c0,1.544.7,2.23,2.322,2.23M351.361,84.87a8.273,8.273,0,0,1,4.058,1.008V89.2a6.611,6.611,0,0,0-3.743-1.244,4.407,4.407,0,1,0,0,8.792,7.266,7.266,0,0,0,3.81-1.244v3.324a8.753,8.753,0,0,1-4.149,1.008c-4.712,0-7.959-3.131-7.959-7.42-.022-4.374,3.27-7.548,7.982-7.548m4.058-5.725h15.715v3.238H365.16V99.41h-3.743V82.383h-5.975V79.145Zm26.268,6.069h3.607V99.388h-3.607V97.5a5.375,5.375,0,0,1-4.622,2.209c-3.608,0-5.772-2.273-5.772-5.983V85.192H374.9v7.913c0,2.209,1.173,3.517,3.292,3.517s3.495-1.544,3.495-3.946Zm16.73,3.217a2.31,2.31,0,0,0-.9-.086c-2.638,0-4.216,1.93-4.216,4.825v6.262h-3.54V85.213h3.495v2.4a4.928,4.928,0,0,1,4.509-2.7,1.383,1.383,0,0,1,.654.086Zm5.93,10.958h-3.54V79.145h3.54Zm6.065-14.175h4.419L409.149,91.9l6.29,7.463h-4.419L404.73,91.9Z" fill="#f5f5f5"/>
          <rect id="Rectangle_5" data-name="Rectangle 5" width="1.06" height="31.619" transform="translate(426.03 73.455)" fill="#f5f5f5"/>
          <g id="Group_14" data-name="Group 14">
            <path id="Path_9" data-name="Path 9" d="M447.226,82.368a6.04,6.04,0,0,0-1.99-.765,12.167,12.167,0,0,0-2.42-.234h-5.257v17.3h1.561V90.608h4.122a9.871,9.871,0,0,0,2.006-.221,6.019,6.019,0,0,0,1.9-.742,4.146,4.146,0,0,0,1.395-1.41,5.023,5.023,0,0,0,.036-4.461A3.952,3.952,0,0,0,447.226,82.368Zm-1.056,6.124h0a5.094,5.094,0,0,1-2.929.782H439.12V82.7h4.122a5.093,5.093,0,0,1,2.929.783,3.224,3.224,0,0,1,0,5.007Z" fill="#f5f5f5"/>
            <path id="Path_10" data-name="Path 10" d="M459.521,90.409a5.808,5.808,0,0,0,3.274-1.453,3.919,3.919,0,0,0,1.155-2.968,4.359,4.359,0,0,0-.612-2.473,3.988,3.988,0,0,0-1.6-1.37,7.243,7.243,0,0,0-2.3-.627,23.86,23.86,0,0,0-2.665-.15h-4.484v17.3h1.562V90.608h3.406l5.115,8.058h1.947l-5.3-8.182Zm-3.331-1.134h-2.336V82.7h3.482a13.667,13.667,0,0,1,1.682.1,5.046,5.046,0,0,1,1.575.45,2.8,2.8,0,0,1,1.636,2.732,2.753,2.753,0,0,1-.629,1.922,3.56,3.56,0,0,1-1.529.966,7.283,7.283,0,0,1-1.931.347C457.478,89.257,456.822,89.274,456.19,89.274Z" fill="#f5f5f5"/>
            <path id="Path_11" data-name="Path 11" d="M484.742,86.374a8.52,8.52,0,0,0-1.977-2.882,9.262,9.262,0,0,0-3.007-1.894,11.031,11.031,0,0,0-7.654,0,9.262,9.262,0,0,0-3.007,1.894,8.526,8.526,0,0,0-1.977,2.882,9.723,9.723,0,0,0,0,7.286,8.518,8.518,0,0,0,1.977,2.882,9.266,9.266,0,0,0,3.007,1.894,11.031,11.031,0,0,0,7.654,0,9.264,9.264,0,0,0,3.007-1.894,8.517,8.517,0,0,0,1.977-2.882,9.726,9.726,0,0,0,0-7.286Zm-1.582,6.659a7.579,7.579,0,0,1-1.6,2.472,7.5,7.5,0,0,1-2.468,1.672,8.486,8.486,0,0,1-6.324,0,7.482,7.482,0,0,1-2.468-1.672,7.57,7.57,0,0,1-1.6-2.472,8.288,8.288,0,0,1,0-6.032,7.58,7.58,0,0,1,1.6-2.473,7.5,7.5,0,0,1,2.468-1.671,8.488,8.488,0,0,1,6.323,0A7.428,7.428,0,0,1,483.16,87a8.275,8.275,0,0,1,0,6.033Z" fill="#f5f5f5"/>
          </g>
        </g>
      </g>
    </g>
    <path id="Color_Overlay" data-name="Color Overlay" d="M733.58,1881.618V1850h1.06v31.619Zm-128.161-.335c-.532-.716.62-2.338,2.547-3.644a7.06,7.06,0,0,1,3.512-1.391h.054a1,1,0,0,1,.886.316c.531.716-.62,2.338-2.547,3.644a7.236,7.236,0,0,1-3.568,1.406A1.052,1.052,0,0,1,605.419,1881.284Zm-13.888-1.516c-.532-1.244,2.06-3.434,5.8-4.909a15.525,15.525,0,0,1,5.41-1.223h.105c1.174,0,1.993.274,2.237.822.532,1.243-2.06,3.434-5.8,4.909a16.3,16.3,0,0,1-5.525,1.223C592.59,1880.59,591.768,1880.321,591.531,1879.767Zm59.4-10.8c-.022-4.375,3.27-7.549,7.982-7.549a8.28,8.28,0,0,1,4.058,1.008v3.324a6.615,6.615,0,0,0-3.743-1.243,4.407,4.407,0,1,0,0,8.792,7.27,7.27,0,0,0,3.811-1.244v3.324a8.751,8.751,0,0,1-4.149,1.008C654.176,1876.384,650.929,1873.253,650.929,1868.964Zm-9.6,2.638v-6.991H638.64v-.472l6.133-6.026h.09v3.667h4.013v2.853h-3.946V1871c0,1.544.7,2.23,2.322,2.23a2.73,2.73,0,0,0,1.669-.428v2.981a5.526,5.526,0,0,1-2.728.535C643.15,1876.319,641.324,1874.582,641.324,1871.6Zm37.518-1.33v-8.535h3.607v7.913c0,2.209,1.173,3.517,3.292,3.517s3.495-1.544,3.495-3.946v-7.463h3.608v14.174h-3.608v-1.886a5.374,5.374,0,0,1-4.621,2.209C681.007,1876.255,678.842,1873.982,678.842,1870.272Zm18.466,5.7v-14.217H700.8v2.4a4.928,4.928,0,0,1,4.51-2.7,1.371,1.371,0,0,1,.653.086v3.431a2.312,2.312,0,0,0-.9-.086c-2.638,0-4.216,1.93-4.216,4.824v6.262Zm-28.342-.022v-17.027h-5.975v-3.237h15.693v3.237H672.71v17.027Zm-47.1,0,.045-20.264h7.305c4.014,0,6.787,2.08,6.787,5.4a4.249,4.249,0,0,1-2.593,4.053,4.965,4.965,0,0,1,3.856,4.975c0,3.624-2.931,5.833-7.553,5.833Zm3.631-3.023h4.126c2.39,0,3.947-1.051,3.947-3.046,0-1.887-1.624-2.981-4.014-2.981H625.5Zm.022-8.857h3.45c2.029,0,3.45-.965,3.45-2.7s-1.421-2.7-3.45-2.7h-3.45Zm-11.5,11.837c-.4-.19-.2-1.328.465-2.528.589-1.06,1.331-1.833,1.776-1.833h.018a.289.289,0,0,1,.133.022c.4.189.2,1.327-.465,2.527-.594,1.074-1.348,1.845-1.786,1.845A.3.3,0,0,1,614.013,1875.911Zm94.343.022V1855.69h3.54v20.243Zm10.214-.021-6.291-7.463,5.682-6.691h4.42l-5.683,6.691,6.291,7.463Zm61.083-.931a9.269,9.269,0,0,1-3.008-1.894,8.515,8.515,0,0,1-1.976-2.882,9.723,9.723,0,0,1,0-7.286,8.515,8.515,0,0,1,1.976-2.882,9.269,9.269,0,0,1,3.008-1.895,11.035,11.035,0,0,1,7.654,0,9.269,9.269,0,0,1,3.008,1.895,8.519,8.519,0,0,1,1.976,2.882,9.723,9.723,0,0,1,0,7.286,8.52,8.52,0,0,1-1.976,2.882,9.26,9.26,0,0,1-3.008,1.894,11.033,11.033,0,0,1-7.654,0Zm.665-15.58a7.435,7.435,0,0,0-4.068,4.145,8.292,8.292,0,0,0,0,6.032,7.571,7.571,0,0,0,1.6,2.472,7.476,7.476,0,0,0,2.468,1.672,8.485,8.485,0,0,0,6.323,0,7.511,7.511,0,0,0,2.469-1.671,7.586,7.586,0,0,0,1.6-2.472,8.27,8.27,0,0,0,0-6.033,7.422,7.422,0,0,0-4.067-4.145,8.485,8.485,0,0,0-6.323,0Zm-10.394,15.808-5.116-8.058H761.4v8.058h-1.561v-17.3h4.484a23.959,23.959,0,0,1,2.665.15,7.26,7.26,0,0,1,2.3.627,3.988,3.988,0,0,1,1.6,1.37,4.36,4.36,0,0,1,.611,2.473,3.919,3.919,0,0,1-1.155,2.967,5.81,5.81,0,0,1-3.274,1.453l-.5.076,5.3,8.181Zm-8.522-9.391h2.336c.633,0,1.289-.017,1.95-.051a7.3,7.3,0,0,0,1.931-.346,3.564,3.564,0,0,0,1.529-.967,2.755,2.755,0,0,0,.628-1.922,2.8,2.8,0,0,0-1.636-2.732,5.05,5.05,0,0,0-1.575-.451,13.8,13.8,0,0,0-1.682-.1H761.4Zm-16.294,9.391v-17.3h5.256a12.155,12.155,0,0,1,2.421.235,6.024,6.024,0,0,1,1.99.765,3.957,3.957,0,0,1,1.354,1.4,5.021,5.021,0,0,1-.036,4.461,4.15,4.15,0,0,1-1.394,1.41,6.01,6.01,0,0,1-1.9.742,9.868,9.868,0,0,1-2.006.22H746.67v8.058Zm1.561-9.391h4.122a5.093,5.093,0,0,0,2.929-.783,3.224,3.224,0,0,0,0-5.007,5.093,5.093,0,0,0-2.929-.783H746.67Zm-139.1,6.869c-.443-.759.221-1.939,1.507-2.633a3.9,3.9,0,0,1,1.816-.506,1.473,1.473,0,0,1,1.329.589c.442.759-.222,1.939-1.507,2.633a3.921,3.921,0,0,1-1.818.5A1.482,1.482,0,0,1,607.568,1872.689Zm6.313-2.718c-.421-.231-.443-.905-.066-1.516a1.563,1.563,0,0,1,1.107-.779.638.638,0,0,1,.288.063c.421.232.443.906.067,1.517a1.452,1.452,0,0,1-1.109.789A.562.562,0,0,1,613.88,1869.971Zm-11.03-1.179c-2.415,0-4.363-1.328-4.363-2.971s1.948-2.97,4.342-2.97c2.414,0,4.363,1.327,4.363,2.97s-1.92,2.971-4.287,2.971Zm6.2-2.971a1.609,1.609,0,1,1,1.573,1.328A1.48,1.48,0,0,1,609.052,1865.821Zm4.806-2.676c-.354-.61-.332-1.284.068-1.516a.529.529,0,0,1,.229-.068.335.335,0,0,1,.059.005,1.436,1.436,0,0,1,1.108.779c.355.611.332,1.285-.067,1.516a.586.586,0,0,1-.275.065A1.481,1.481,0,0,1,613.858,1863.145Zm-4.718-1.6c-1.284-.7-1.971-1.875-1.506-2.633a1.445,1.445,0,0,1,1.328-.59,3.91,3.91,0,0,1,1.817.506c1.284.695,1.971,1.875,1.506,2.633a1.481,1.481,0,0,1-1.328.588A3.931,3.931,0,0,1,609.14,1861.545Zm5.339-3.329c-.664-1.2-.864-2.318-.465-2.528a.3.3,0,0,1,.133-.021c.443,0,1.2.759,1.794,1.832.664,1.2.864,2.318.465,2.528a.3.3,0,0,1-.131.028C615.839,1860.055,615.077,1859.3,614.479,1858.216Zm-17.144-1.474c-3.743-1.475-6.335-3.666-5.8-4.909.244-.548,1.063-.822,2.237-.822a16.372,16.372,0,0,1,5.515,1.222c3.743,1.474,6.335,3.665,5.8,4.909-.248.556-1.078.83-2.254.83A15.977,15.977,0,0,1,597.335,1856.741Zm65.634-1.051h.023Zm-55.024-1.73c-1.927-1.306-3.079-2.929-2.548-3.644a1.061,1.061,0,0,1,.886-.316,7.347,7.347,0,0,1,3.566,1.39c1.927,1.307,3.079,2.929,2.547,3.645a1.051,1.051,0,0,1-.885.331A7.233,7.233,0,0,1,607.945,1853.96Z" fill="#3b5b67"/>
  </g>
</svg>
