<svg xmlns="http://www.w3.org/2000/svg" xmlns:xlink="http://www.w3.org/1999/xlink" width="129.545" height="31.615" viewBox="0 0 129.545 31.615">
  <defs>
    <clipPath id="clip-path">
      <path id="Path_19" data-name="Path 19" d="M295.887,45.8c-1.9,1.306-3.032,2.928-2.509,3.644s2.487.231,4.385-1.075,3.032-2.928,2.509-3.644a.979.979,0,0,0-.873-.316h-.053a6.9,6.9,0,0,0-3.459,1.391m-10.472-2.781c-3.687,1.475-6.239,3.665-5.716,4.908s3.949,1.053,7.636-.4c3.687-1.475,6.239-3.666,5.716-4.909-.24-.548-1.047-.821-2.2-.821h-.1a15.106,15.106,0,0,0-5.328,1.223M302.3,41.542c-.654,1.2-.851,2.338-.458,2.528.393.211,1.243-.611,1.9-1.812s.851-2.338.458-2.528a.281.281,0,0,0-.131-.021h-.017c-.438,0-1.168.773-1.75,1.833m-5.323-3.328c-1.265.695-1.92,1.875-1.483,2.633.458.758,1.833.78,3.1.084s1.92-1.875,1.484-2.633a1.441,1.441,0,0,0-1.309-.59,3.8,3.8,0,0,0-1.789.506m4.669-1.6c-.371.611-.349,1.285.065,1.517.393.232,1.026-.105,1.374-.716.371-.611.349-1.285-.065-1.517a.623.623,0,0,0-.284-.063,1.542,1.542,0,0,0-1.091.779m-4.69-2.633a1.451,1.451,0,0,0,1.549,1.327,1.343,1.343,0,1,0-1.549-1.327m-10.406,0c0,1.643,1.92,2.971,4.3,2.971,2.356.021,4.276-1.306,4.276-2.971,0-1.643-1.92-2.97-4.3-2.97-2.356,0-4.276,1.327-4.276,2.97m15.206-4.192c-.393.232-.415.906-.066,1.517.371.611.982.927,1.374.716.393-.231.414-.905.065-1.517a1.413,1.413,0,0,0-1.091-.779.282.282,0,0,0-.058-.006.516.516,0,0,0-.225.069m-6.2-2.718c-.458.759.218,1.938,1.483,2.633s2.64.674,3.1-.084-.218-1.938-1.483-2.633a3.8,3.8,0,0,0-1.789-.506,1.416,1.416,0,0,0-1.309.59m6.283-3.223c-.393.211-.2,1.327.458,2.528s1.505,2,1.9,1.811c.393-.211.2-1.327-.458-2.528-.589-1.074-1.331-1.832-1.767-1.832a.287.287,0,0,0-.131.021M279.7,19.991c-.523,1.243,2.029,3.434,5.716,4.908s7.09,1.643,7.635.4c.524-1.243-2.029-3.434-5.716-4.909a15.921,15.921,0,0,0-5.432-1.222c-1.156,0-1.963.274-2.2.822m13.657-1.517c-.524.716.611,2.338,2.509,3.644s3.861,1.791,4.385,1.075-.611-2.339-2.509-3.645a7.166,7.166,0,0,0-3.512-1.39,1.035,1.035,0,0,0-.872.316" fill="#3b5b67"/>
    </clipPath>
  </defs>
  <g id="Btcturk" transform="translate(-279.632 -18.158)">
    <g id="Group_27" data-name="Group 27">
      <g id="Group_26" data-name="Group 26">
        <g id="Group_25" data-name="Group 25" clip-path="url(#clip-path)">
          <rect id="Rectangle_9" data-name="Rectangle 9" width="25.415" height="32" transform="translate(279.177 18.158)" fill="#3b5b67"/>
        </g>
      </g>
      <path id="Path_20" data-name="Path 20" d="M309.621,23.848h7.2c3.953,0,6.685,2.08,6.685,5.4a4.254,4.254,0,0,1-2.554,4.053,4.953,4.953,0,0,1,3.8,4.975c0,3.624-2.887,5.833-7.439,5.833h-7.728Zm6.951,8.385c2,0,3.4-.965,3.4-2.7s-1.4-2.7-3.4-2.7h-3.4v5.4Zm.644,8.856c2.354,0,3.886-1.051,3.886-3.045,0-1.887-1.6-2.981-3.953-2.981h-4v6.026Zm17.366.3a2.657,2.657,0,0,0,1.643-.429v2.981a5.373,5.373,0,0,1-2.687.536c-3,0-4.8-1.737-4.8-4.718V32.769H326.1V32.3l6.04-6.026h.089v3.667h3.953V32.79h-3.886v6.369c0,1.544.688,2.23,2.287,2.23m11.481-11.816a8.053,8.053,0,0,1,4,1.008v3.324a6.445,6.445,0,0,0-3.686-1.244,4.4,4.4,0,1,0,0,8.792,7.082,7.082,0,0,0,3.753-1.244v3.324a8.517,8.517,0,0,1-4.086,1.008c-4.641,0-7.839-3.131-7.839-7.42-.022-4.375,3.22-7.548,7.862-7.548m4-5.726h15.478v3.238h-5.885V44.113h-3.686V27.086h-5.885V23.848Zm25.872,6.069h3.553V44.092h-3.553V42.2a5.266,5.266,0,0,1-4.552,2.209c-3.553,0-5.685-2.273-5.685-5.983V29.9h3.553v7.913c0,2.209,1.155,3.517,3.242,3.517s3.442-1.544,3.442-3.946Zm16.478,3.217a2.242,2.242,0,0,0-.888-.086c-2.6,0-4.153,1.93-4.153,4.825v6.262h-3.486V29.917h3.442v2.4a4.845,4.845,0,0,1,4.441-2.7,1.343,1.343,0,0,1,.644.086Zm5.841,10.958h-3.487V23.848h3.487Zm5.974-14.175h4.353l-5.6,6.691,6.2,7.463h-4.353l-6.2-7.463Z" fill="#3b5b67"/>
    </g>
  </g>
</svg>
