<svg xmlns="http://www.w3.org/2000/svg" xmlns:xlink="http://www.w3.org/1999/xlink" width="204.559" height="38.22" viewBox="0 0 204.559 38.22">
  <defs>
    <clipPath id="clip-path">
      <path id="SVGID" d="M328.09,244.847c-2.1,1.51-3.362,3.386-2.782,4.214s2.758.268,4.862-1.242,3.362-3.386,2.782-4.214a1.061,1.061,0,0,0-.968-.365h-.059a7.468,7.468,0,0,0-3.835,1.608m-11.611-3.215c-4.088,1.705-6.918,4.239-6.338,5.675s4.378,1.218,8.467-.463c4.088-1.7,6.918-4.238,6.338-5.675-.266-.634-1.161-.95-2.443-.95h-.115a16.178,16.178,0,0,0-5.908,1.413m18.723-1.705c-.725,1.389-.943,2.7-.508,2.923.435.244,1.379-.706,2.1-2.095s.944-2.7.508-2.923a.309.309,0,0,0-.145-.024h-.019c-.486,0-1.3.894-1.94,2.119m-5.9-3.849c-1.4.8-2.129,2.168-1.645,3.045.508.877,2.032.9,3.435.1s2.129-2.168,1.645-3.045a1.573,1.573,0,0,0-1.452-.682,4.083,4.083,0,0,0-1.984.584m5.177-1.851c-.411.707-.387,1.486.072,1.754.435.268,1.137-.122,1.524-.828.411-.707.387-1.486-.072-1.754a.665.665,0,0,0-.314-.073,1.709,1.709,0,0,0-1.21.9m-5.2-3.045a1.634,1.634,0,0,0,1.717,1.535,1.544,1.544,0,1,0-1.717-1.535m-11.539,0c0,1.9,2.129,3.434,4.765,3.434,2.612.025,4.741-1.51,4.741-3.434,0-1.9-2.129-3.435-4.765-3.435-2.613,0-4.741,1.535-4.741,3.435m16.86-4.847c-.436.268-.46,1.047-.073,1.754.411.706,1.089,1.072,1.524.828.435-.268.46-1.047.073-1.754a1.569,1.569,0,0,0-1.209-.9.32.32,0,0,0-.065-.007.552.552,0,0,0-.25.08m-6.87-3.142c-.508.877.242,2.241,1.645,3.045s2.927.78,3.435-.1-.242-2.241-1.645-3.045a4.082,4.082,0,0,0-1.984-.585,1.546,1.546,0,0,0-1.451.682m6.967-3.727c-.435.244-.218,1.535.508,2.923s1.669,2.314,2.1,2.095c.435-.244.218-1.535-.508-2.923-.653-1.243-1.475-2.119-1.959-2.119a.3.3,0,0,0-.145.024m-24.553-4.457c-.58,1.437,2.25,3.97,6.338,5.676s7.862,1.9,8.466.463c.581-1.437-2.249-3.97-6.338-5.676a17.05,17.05,0,0,0-6.024-1.413c-1.282,0-2.177.316-2.443.95m15.143-1.754c-.581.828.677,2.7,2.782,4.214s4.281,2.071,4.862,1.243-.677-2.7-2.782-4.214a7.752,7.752,0,0,0-3.895-1.608,1.124,1.124,0,0,0-.967.365" fill="none"/>
    </clipPath>
    <linearGradient id="linear-gradient" x1="-11.155" y1="-1.194" x2="-11.146" y2="-1.194" gradientUnits="objectBoundingBox">
      <stop offset="0" stop-color="#003aff"/>
      <stop offset="0.247" stop-color="#0067ff"/>
      <stop offset="0.803" stop-color="#02d6ff"/>
      <stop offset="1" stop-color="#02ffff"/>
    </linearGradient>
  </defs>
  <g id="BilgiPlatformu" transform="translate(-836.505 -1848.336)" opacity="0.502">
    <g id="BilgiPlatformu-2" data-name="BilgiPlatformu" transform="translate(526.44 1637.11)">
      <g id="Group_8" data-name="Group 8">
        <g id="Group_7" data-name="Group 7">
          <g id="Group_6" data-name="Group 6" clip-path="url(#clip-path)">
            <rect id="Rectangle_2" data-name="Rectangle 2" width="28.181" height="37" transform="translate(309.56 212.889)" fill="url(#linear-gradient)"/>
          </g>
        </g>
        <text id="BilgiPlatformu-3" data-name="BilgiPlatformu" transform="translate(340.625 241.226)" fill="#fff" font-size="28" font-family="SegoeUI, Segoe UI"><tspan x="0" y="0">BilgiPlatformu</tspan></text>
      </g>
    </g>
    <path id="Color_Overlay" data-name="Color Overlay" d="M851.747,1886.172c-.581-.828.678-2.7,2.782-4.214a7.456,7.456,0,0,1,3.835-1.608h.059a1.063,1.063,0,0,1,.968.365c.58.827-.678,2.7-2.783,4.214a7.648,7.648,0,0,1-3.9,1.625A1.117,1.117,0,0,1,851.747,1886.172Zm-15.167-1.754c-.581-1.436,2.249-3.97,6.338-5.675a16.182,16.182,0,0,1,5.909-1.414l.115,0c1.282,0,2.177.316,2.443.95.581,1.437-2.249,3.971-6.338,5.675a16.974,16.974,0,0,1-6.034,1.415C837.736,1885.37,836.839,1885.058,836.581,1884.418Zm62.393-.476V1881.7a9.315,9.315,0,0,0,4.512,1.313q5.169,0,5.169-5.5v-1.531H908.6a5.665,5.665,0,0,1-9.017.813,7.462,7.462,0,0,1-1.592-5.01,8.714,8.714,0,0,1,1.715-5.674,5.732,5.732,0,0,1,4.7-2.106,4.564,4.564,0,0,1,4.2,2.27h.055v-1.941H910.9v12.879q0,7.711-7.383,7.71A9.92,9.92,0,0,1,898.974,1883.942Zm2.489-16.537a6.745,6.745,0,0,0-1.175,4.232,5.792,5.792,0,0,0,1.128,3.74,3.645,3.645,0,0,0,2.987,1.4,3.9,3.9,0,0,0,3.07-1.34,5,5,0,0,0,1.183-3.432v-2.065a4.005,4.005,0,0,0-1.129-2.858,3.712,3.712,0,0,0-2.809-1.189A3.893,3.893,0,0,0,901.463,1867.406Zm-40.329,12.555c-.436-.219-.218-1.535.508-2.922.644-1.226,1.454-2.12,1.94-2.12h.019a.308.308,0,0,1,.146.024c.436.22.218,1.535-.508,2.923-.649,1.242-1.471,2.132-1.95,2.132A.307.307,0,0,1,861.134,1879.961Zm166-7.257v-8.367h2.228v8.012q0,4.429,3.39,4.43a3.428,3.428,0,0,0,2.7-1.211,4.627,4.627,0,0,0,1.06-3.164v-8.067h2.242v14h-2.242v-2.214h-.055a4.605,4.605,0,0,1-4.321,2.542Q1027.135,1878.665,1027.135,1872.7Zm-49.062,4a7.268,7.268,0,0,1-1.853-5.2,7.569,7.569,0,0,1,1.928-5.51,6.933,6.933,0,0,1,5.209-1.983,6.279,6.279,0,0,1,4.888,1.928,7.646,7.646,0,0,1,1.757,5.346,7.518,7.518,0,0,1-1.894,5.366,6.635,6.635,0,0,1-5.079,2.017A6.5,6.5,0,0,1,978.073,1876.7Zm1.7-9.338a6.034,6.034,0,0,0-1.257,4.054,5.709,5.709,0,0,0,1.271,3.924,4.323,4.323,0,0,0,3.4,1.436,4.1,4.1,0,0,0,3.343-1.409,6.111,6.111,0,0,0,1.169-4.006,6.214,6.214,0,0,0-1.169-4.046,4.079,4.079,0,0,0-3.343-1.422A4.265,4.265,0,0,0,979.775,1867.365Zm-34.952,10.193a3.838,3.838,0,0,1-1.183-2.94q0-3.923,4.621-4.566l4.2-.589q0-3.568-2.885-3.568a6.894,6.894,0,0,0-4.567,1.723v-2.3a8.674,8.674,0,0,1,4.758-1.313q4.936,0,4.936,5.223v9.105h-2.242v-2.187H952.4a4.7,4.7,0,0,1-4.306,2.516A4.6,4.6,0,0,1,944.823,1877.557Zm4.259-5.838a5.489,5.489,0,0,0-2.352.772,2.229,2.229,0,0,0-.793,1.962,2.136,2.136,0,0,0,.732,1.675,2.828,2.828,0,0,0,1.948.65,3.6,3.6,0,0,0,2.755-1.169,4.177,4.177,0,0,0,1.087-2.96v-1.394Zm10.569,2.816v-8.285h-2.407v-1.914h2.407v-3.418l2.242-.724v4.143h3.528v1.914h-3.528v7.889a3.274,3.274,0,0,0,.479,2.01,1.911,1.911,0,0,0,1.586.6,2.361,2.361,0,0,0,1.463-.464v1.914a4.329,4.329,0,0,1-2.092.437Q959.65,1878.638,959.65,1874.535Zm61.3,3.8V1870.3a6.07,6.07,0,0,0-.717-3.363,2.722,2.722,0,0,0-2.413-1.039,2.988,2.988,0,0,0-2.441,1.312,5.024,5.024,0,0,0-1.005,3.145v7.984h-2.242v-8.312q0-4.128-3.185-4.128a2.951,2.951,0,0,0-2.434,1.237,5.116,5.116,0,0,0-.958,3.22v7.984h-2.242v-14h2.242v2.215h.055a4.756,4.756,0,0,1,4.348-2.543,4.043,4.043,0,0,1,3.964,2.9,5,5,0,0,1,4.648-2.9q4.621,0,4.622,5.7v8.626Zm-27.371,0v-14h2.242v2.885h.055a4.879,4.879,0,0,1,1.463-2.3,3.338,3.338,0,0,1,2.2-.828,3.656,3.656,0,0,1,1.34.192v2.325a2.738,2.738,0,0,0-1.7-.452,2.863,2.863,0,0,0-2.4,1.354,6.259,6.259,0,0,0-.964,3.692v7.136Zm-24.322,0v-12.085h-2.392v-1.914h2.392v-2.27a4.716,4.716,0,0,1,1.272-3.479,4.292,4.292,0,0,1,3.172-1.278,4.4,4.4,0,0,1,1.627.246v2.023a2.99,2.99,0,0,0-1.49-.369q-2.352,0-2.352,2.967v2.16h3.281v1.914H971.49v12.085Zm-31.363,0V1857.61h2.242v20.726Zm-15.381,0v-19.6H927.9a7.11,7.11,0,0,1,4.873,1.531,5.467,5.467,0,0,1,1.73,4.32,5.941,5.941,0,0,1-1.922,4.567,7.335,7.335,0,0,1-5.188,1.778h-2.584v7.41Zm2.3-9.488h2.407a5.379,5.379,0,0,0,3.63-1.087,3.847,3.847,0,0,0,1.251-3.069q0-3.883-4.594-3.883h-2.694Zm-9.379,9.488v-14h2.243v14Zm-23.269,0V1857.61h2.243v20.726Zm-6.781,0v-14h2.242v14Zm-15.75,0v-19.6h5.578a6.1,6.1,0,0,1,4.033,1.244,4.022,4.022,0,0,1,1.49,3.24,4.772,4.772,0,0,1-.9,2.9,4.867,4.867,0,0,1-2.489,1.75v.055a4.99,4.99,0,0,1,3.172,1.5,4.606,4.606,0,0,1,1.189,3.289,5.127,5.127,0,0,1-1.8,4.074,6.719,6.719,0,0,1-4.553,1.558Zm2.3-2.078h3.117a4.672,4.672,0,0,0,3.138-.957,3.28,3.28,0,0,0,1.114-2.625q0-3.472-4.73-3.472h-2.639Zm0-9.119h2.352a4.467,4.467,0,0,0,2.966-.909,3.167,3.167,0,0,0,1.08-2.563q0-2.858-3.759-2.858h-2.639Zm-17.838,9.1c-.483-.877.242-2.241,1.645-3.046a4.081,4.081,0,0,1,1.984-.584,1.571,1.571,0,0,1,1.452.682c.483.877-.242,2.241-1.645,3.045a4.111,4.111,0,0,1-1.985.582A1.585,1.585,0,0,1,854.094,1876.234Zm6.894-3.143c-.459-.268-.483-1.047-.072-1.753a1.71,1.71,0,0,1,1.21-.9.668.668,0,0,1,.314.073c.46.268.484,1.048.073,1.754a1.587,1.587,0,0,1-1.211.913A.6.6,0,0,1,860.988,1873.092Zm-12.046-1.365c-2.637,0-4.766-1.534-4.766-3.433s2.128-3.435,4.741-3.435c2.636,0,4.765,1.535,4.765,3.435s-2.094,3.433-4.677,3.433Zm6.772-3.433a1.742,1.742,0,1,1,1.718,1.535A1.65,1.65,0,0,1,855.715,1868.294Zm5.249-3.094c-.387-.706-.363-1.486.073-1.753a.552.552,0,0,1,.25-.08.276.276,0,0,1,.065.007,1.566,1.566,0,0,1,1.209.9c.387.707.364,1.486-.072,1.754a.6.6,0,0,1-.3.075A1.62,1.62,0,0,1,860.963,1865.2Zm-5.152-1.851c-1.4-.8-2.153-2.167-1.645-3.045a1.548,1.548,0,0,1,1.452-.682,4.09,4.09,0,0,1,1.984.585c1.4.8,2.153,2.168,1.644,3.045a1.583,1.583,0,0,1-1.449.68A4.1,4.1,0,0,1,855.812,1863.348Zm5.829-3.848c-.725-1.389-.943-2.679-.508-2.923a.3.3,0,0,1,.145-.024c.484,0,1.307.877,1.959,2.12.726,1.389.944,2.679.508,2.923a.315.315,0,0,1-.143.032C863.127,1861.627,862.3,1860.752,861.641,1859.5Zm53.917.872a1.385,1.385,0,0,1-.424-1.04,1.436,1.436,0,0,1,1.449-1.463,1.449,1.449,0,0,1,1.047.417,1.461,1.461,0,0,1,0,2.071,1.5,1.5,0,0,1-2.072.014Zm-30.051,0a1.385,1.385,0,0,1-.424-1.04,1.436,1.436,0,0,1,1.45-1.463,1.448,1.448,0,0,1,1.046.417,1.461,1.461,0,0,1,0,2.071,1.5,1.5,0,0,1-2.072.014Zm-36.585-1.155a16.631,16.631,0,0,1-6-1.422c-4.089-1.705-6.918-4.239-6.338-5.675.266-.634,1.161-.95,2.443-.95a17.054,17.054,0,0,1,6.024,1.413c4.089,1.706,6.918,4.238,6.338,5.675-.271.643-1.174.959-2.457.959Zm5.583-4.638c-2.1-1.51-3.362-3.386-2.782-4.214a1.126,1.126,0,0,1,.967-.365,7.757,7.757,0,0,1,3.9,1.607c2.1,1.51,3.362,3.386,2.782,4.215a1.118,1.118,0,0,1-.967.383A7.642,7.642,0,0,1,854.505,1854.58Z" fill="#3b5b67"/>
  </g>
</svg>
