<svg xmlns="http://www.w3.org/2000/svg" width="156.001" height="136" viewBox="0 0 156.001 136">
  <g id="Group_34" data-name="Group 34" transform="translate(-77.021 -34.707)">
    <g id="Group_29" data-name="Group 29">
      <path id="Path_21" data-name="Path 21" d="M88.264,148.693c.761.126,1.437.3,1.733.3a2.686,2.686,0,0,0,1.141-.3,3.694,3.694,0,0,1,1.141-.255c1.945,0,3.889,3.9,3.889,5.641a2.033,2.033,0,0,1-2.071,1.994c-2.41,0-3.762-3.351-5.622-3.351a1.53,1.53,0,0,0-1.521,1.443c0,2.715,9.3,3.224,9.3,9.8,0,3.987-3.847,6.744-8.243,6.744a22.09,22.09,0,0,1-3.128-.3c-1.057-.127-1.987-.255-2.241-.255a5.628,5.628,0,0,0-.845.085,4.689,4.689,0,0,1-.8.084,2.028,2.028,0,0,1-1.859-.805,9.491,9.491,0,0,1-2.114-5.218c0-1.1.381-1.994,1.606-1.994,1.859,0,3.55,4.2,5.917,4.2.846,0,1.649-.424,1.649-1.357,0-2.5-8.285-2.8-8.285-9.8,0-4.242,3.466-6.913,7.82-6.913A12.5,12.5,0,0,1,88.264,148.693Z" fill="#0c5568"/>
      <path id="Path_22" data-name="Path 22" d="M119.288,159.976c0,7.465,2.536,3.393,2.536,5.683,0,2.418-3.3,5.048-6.383,5.048-3.34,0-3.424-2.163-4.48-2.163-.507,0-1.057.551-1.987,1.061a7.7,7.7,0,0,1-4.142,1.1c-3.508,0-7.017-1.867-7.017-6.065,0-3.012,2.874-6.745,10.314-6.745,1.311,0,1.9.085,1.9-1.442,0-1.4-.043-4.327-1.987-4.327-2.536,0-2.789,4.58-6.551,4.58a2.281,2.281,0,0,1-2.368-2.333c0-3.605,7.144-5.938,11.16-5.938,2.409,0,9,.933,9,7.3Zm-12.68,3.732c0,1.1.591,2.291,1.817,2.291,1.606,0,1.733-1.739,1.733-3.012,0-.933.042-1.994-1.142-1.994A2.593,2.593,0,0,0,106.608,163.708Z" fill="#0c5568"/>
      <path id="Path_23" data-name="Path 23" d="M133.537,160.952c0,2.841,1.184,3.52,2.325,3.52,1.311,0,2.072-.975,2.832-.975.846,0,1.437,1.188,1.437,1.952,0,2.8-4.819,5.259-9.088,5.259-2.156,0-7.566-.933-7.566-7.677v-8.738c0-.764,0-1.061-.211-1.188a5.484,5.484,0,0,0-1.649-.042c-1.1,0-1.648.042-1.859-.17-.3-.3-.212-.721-.212-1.7,0-.594-.127-1.061.381-1.4l9.637-6.151c.972-.594.93-.466,2.2-.466,1.691,0,1.775-.169,1.775,1.781a13.083,13.083,0,0,0,.127,3.139c.127.34.423.34,1.521.34h2.959c1.818,0,1.818.127,1.818,2.036,0,2.417-.3,2.587-1.945,2.587H135.1c-1.479,0-1.564.042-1.564,1.569Z" fill="#0c5568"/>
      <path id="Path_24" data-name="Path 24" d="M140.331,160.315c0-7.593,6.635-11.877,13.61-11.877a11.266,11.266,0,0,1,11.623,11.071c0,6.956-7.439,11.2-13.652,11.2C145.656,170.707,140.331,167.017,140.331,160.315Zm11.792-6.871a2.226,2.226,0,0,0-2.071,2.544c.169,2.673.93,9.2,3.847,9.374,1.605.085,1.944-1.272,1.944-2.63C155.843,160.824,155,153.444,152.123,153.444Z" fill="#0c5568"/>
      <path id="Path_25" data-name="Path 25" d="M177.682,148.693c.761.126,1.437.3,1.733.3a2.683,2.683,0,0,0,1.141-.3,3.693,3.693,0,0,1,1.142-.255c1.944,0,3.888,3.9,3.888,5.641a2.033,2.033,0,0,1-2.071,1.994c-2.409,0-3.761-3.351-5.621-3.351a1.53,1.53,0,0,0-1.521,1.443c0,2.715,9.3,3.224,9.3,9.8,0,3.987-3.846,6.744-8.243,6.744a22.09,22.09,0,0,1-3.128-.3c-1.056-.127-1.986-.255-2.24-.255a5.628,5.628,0,0,0-.845.085,4.7,4.7,0,0,1-.8.084,2.029,2.029,0,0,1-1.86-.805,9.49,9.49,0,0,1-2.113-5.218c0-1.1.38-1.994,1.605-1.994,1.86,0,3.551,4.2,5.918,4.2.845,0,1.648-.424,1.648-1.357,0-2.5-8.285-2.8-8.285-9.8,0-4.242,3.466-6.913,7.819-6.913A12.5,12.5,0,0,1,177.682,148.693Z" fill="#0c5568"/>
      <path id="Path_26" data-name="Path 26" d="M214.285,163.793c0,3.606,2.072,2.715,2.072,4.37,0,2.459-5.41,2.417-6.975,2.417-1.31,0-6.425,0-6.425-2.163,0-1.23,1.184-1.187,1.521-3.35a23.583,23.583,0,0,0,.3-4.242c0-2.121-.042-6.108-3.043-6.108-2.578,0-2.494,2.206-2.494,4.114v4.92c0,3.521,1.69,2.8,1.69,4.327,0,2.46-4.818,2.5-6.425,2.5-6.045,0-7.439-1.272-7.439-2.587,0-1.7,1.648-.932,2.367-3.69.507-1.994.507-7.593.507-9.926,0-1.909-.127-3.86-.169-5.768-.085-3.012-2.62-1.951-2.62-3.945,0-3.393,10.99-4.284,11.032-4.284,1.268,0,1.353.381,1.353,1.611l-.254,8.06c-.042.806-.085,2.163,1.014,2.163,1.269,0,1.818-3.775,6.552-3.775,7.777,0,7.228,7.337,7.27,8.525Z" fill="#0c5568"/>
      <g id="Group_28" data-name="Group 28">
        <path id="Path_27" data-name="Path 27" d="M230.527,162.266c0,5.005,2.494,3.182,2.494,5.429,0,2.884-5.368,2.884-7.271,2.884-7.27,0-7.566-1.654-7.566-2.672,0-1.528,1.733-1.612,2.241-2.927.549-1.485.634-7.635.169-9.2-.381-1.484-2.536-1.018-2.536-2.926,0-3.012,10.736-4.284,11.16-4.284,1.268,0,1.31.975,1.31,1.867Z" fill="#0c5568"/>
        <path id="Path_28" data-name="Path 28" d="M226.783,137.482a9,9,0,0,0-4.632,1.164c-3.317,1.775-5.147,4.986-4.139,7.177,1.065,2.19,4.564,2.44,7.886.668s5.149-4.985,4.141-7.173A3.576,3.576,0,0,0,226.783,137.482Z" fill="#0c5568"/>
      </g>
    </g>
    <g id="Group_33" data-name="Group 33">
      <g id="Group_32" data-name="Group 32">
        <g id="Group_30" data-name="Group 30">
          <path id="Path_29" data-name="Path 29" d="M171.722,64.62a5.345,5.345,0,0,1,.349,2.334,8.533,8.533,0,0,1-1.4,4.051,8.761,8.761,0,0,1-2.31,2.442l.16.011q1.266.08,2.53.19a8.4,8.4,0,0,1,2.167-.33c.055,0,.105,0,.158.005a4.007,4.007,0,0,1-.267-1.067c-.213-1.886.735-4.451,2.557-7.017C174.474,65.039,173.158,64.831,171.722,64.62Z" fill="#ee6c17"/>
          <path id="Path_30" data-name="Path 30" d="M145.075,72.636a8.156,8.156,0,0,1-2.95-3.365c-1.359-2.747-1.224-5.568.192-7.191q-2.545-.066-5.181-.075c.015.024.031.048.046.072,1.683,2.665,2.584,5.348,2.47,7.359,0,.045-.005.095-.011.151a4.6,4.6,0,0,1-.453,1.8,10.327,10.327,0,0,1,3.85,1.348c.121-.008.242-.017.363-.023C143.959,72.679,144.517,72.656,145.075,72.636Z" fill="#ee6c17"/>
          <path id="Path_31" data-name="Path 31" d="M152.021,68.672a4.774,4.774,0,0,1,2.633-4.066,6.9,6.9,0,0,1-2.494-1.817c-.076-.088-.149-.178-.223-.268q-1.515-.1-3.078-.183a8.7,8.7,0,0,1,1.932,2.591,8.425,8.425,0,0,1,.939,4.186,5.143,5.143,0,0,1-.808,2.584,5.429,5.429,0,0,1,1.593.726l.032.022.031.022c.032.023.062.047.093.071l.852,0A4.911,4.911,0,0,1,152.021,68.672Z" fill="#ee6c17"/>
          <path id="Path_32" data-name="Path 32" d="M205.141,103.046a9.384,9.384,0,0,0-4.8-4.551,40,40,0,0,0-8.777-2.439c-.161-.027-.389.036-.443-.189-.05-.206.153-.218.286-.269a14.016,14.016,0,0,0,5.835-3.867,12.855,12.855,0,0,0,3.164-6.4,17.9,17.9,0,0,0-.674-8.672,10.107,10.107,0,0,0-2.932-4.775c-3.193-2.648-6.935-3.694-10.834-4.587A19.8,19.8,0,0,1,184,70.319l-.006.008-.006.007a18.525,18.525,0,0,1-3.591,3.485,10.849,10.849,0,0,1-1.41.86c.279.049.56.1.839.15a2.79,2.79,0,0,1,2.2,1.608c.465.983.757,2.03,1.22,3.009.368,1.492.789,2.968,1.084,4.479A79.878,79.878,0,0,1,185.661,95.2a96.729,96.729,0,0,1,0,9.859,43.792,43.792,0,0,1-1.787,11.334c-.085.263-.209.514-.3.775a3.746,3.746,0,0,1-3.973,2.744c-7.481.139-14.959.472-22.437.738q-5.893.209-11.784.437c-2.643.1-5.284.183-7.926.3a10.614,10.614,0,0,1-2.989-.375,3.122,3.122,0,0,1-1.709-1.529,40.669,40.669,0,0,1-4.774-9.837,57.053,57.053,0,0,1-3.109-18.515c0-1.412.181-2.824.279-4.236a4.141,4.141,0,0,0,.131-.508,34.9,34.9,0,0,1,1.4-6.118c.263-.834.605-1.643.912-2.464.2-.045.264-.22.356-.367a7.422,7.422,0,0,1,4.849-3.218c1.035-.249,2.076-.462,3.121-.649a2.487,2.487,0,0,1,.113-.453c-2.617-.181-5.354-3.11-7.074-5.854a17.325,17.325,0,0,1-2.23-5.03,20.036,20.036,0,0,1-2.4.039c-3.7-.251-7.4-.232-11.1-.3-1.133-.021-2.263-.08-3.4-.006a.937.937,0,0,0-.957.863c-.635,2.882-1.249,5.768-2.08,8.6-.138.47-.058.709.507.694,1.259-.034,2.521,0,3.779-.04a6.127,6.127,0,0,1,2.362.4,2.781,2.781,0,0,1,1.868,3.016c-.223,2.292-.729,4.533-1.12,6.8-.446,2.585-.757,5.193-1.127,7.792a1.787,1.787,0,0,0-.234.791,52.488,52.488,0,0,0-.184,9.081,43.614,43.614,0,0,0,3.034,11.988c.968,2.544,2.068,5.036,3.037,7.58a2.424,2.424,0,0,1-.227,2.526,3.469,3.469,0,0,1-2.381,1.32q-2.33.224-4.655.49c-.28.031-.68-.154-.813.208s.1.677.344.95c.7.79,1.426,1.56,2.1,2.372,1.606,1.944,3.3,3.8,5.028,5.642a1.442,1.442,0,0,0,2.014.395,4.988,4.988,0,0,1,.855-.291,69.658,69.658,0,0,1,9.933-1.368c2.279-.218,4.571-.3,6.855-.467a1.356,1.356,0,0,1,1.419.9c.278.564.543,1.135.844,1.687a1.272,1.272,0,0,0,1.231.728c1.912-.072,3.825-.156,5.738-.212a61.175,61.175,0,0,1,7.31-.288c.555.049.807-.327.648-.877-.168-.581-.33-1.165-.473-1.752-.123-.506-.009-.805.614-.813,1.789-.023,3.577-.085,5.364-.151a.612.612,0,0,1,.734.569,5.909,5.909,0,0,1,.146,1.726c-.1.838.153,1.1,1,1.074,1.812-.048,3.624-.05,5.438-.136,2.868-.136,5.743-.127,8.615-.17.972-.015,1.422-.31,1.627-1.231.136-.613.331-1.21.409-1.844.147-1.19.3-1.26,1.48-1.485,2.2-.416,4.426-.749,6.581-1.337a46.347,46.347,0,0,0,11.812-4.918,16.776,16.776,0,0,0,7.268-8.435A13.064,13.064,0,0,0,205.141,103.046Z" fill="#ee6c17"/>
          <path id="Path_33" data-name="Path 33" d="M159.062,72.724q.59.043,1.181.089a5.5,5.5,0,0,1,1.4-.405c-.9-1.778-.622-4.34.9-6.7a9.023,9.023,0,0,1,1.811-2.061q-1.475-.172-3.041-.335a6.793,6.793,0,0,1-2.649,1.521,4.5,4.5,0,0,1,1.128,1.012,4.991,4.991,0,0,1-.73,6.877Z" fill="#ee6c17"/>
        </g>
        <g id="Group_31" data-name="Group 31">
          <path id="Path_34" data-name="Path 34" d="M172.541,60.318c2.18,1.038,6.362-3.179,9.371-9.441a27.1,27.1,0,0,0,2.723-9.324c.113-2.013-.3-3.443-1.259-3.918-2.18-1.037-6.362,3.18-9.371,9.443S170.362,59.243,172.541,60.318Z" fill="#ee6c17"/>
          <path id="Path_35" data-name="Path 35" d="M142.481,74.755c-2.094-1.261-4.114-1.719-4.492-1.055-.419.662.975,2.225,3.064,3.485s4.116,1.719,4.494,1.055a.487.487,0,0,0,.05-.225c0-.01,0-.021,0-.03C145.643,77.223,144.328,75.874,142.481,74.755Z" fill="#ee6c17"/>
          <path id="Path_36" data-name="Path 36" d="M169.708,76.3c-2.22,1.015-3.74,2.415-3.439,3.117.342.7,2.364.477,4.583-.54,1.988-.914,3.421-2.128,3.464-2.886a.512.512,0,0,0-.025-.231C173.951,75.053,171.927,75.281,169.708,76.3Z" fill="#ee6c17"/>
          <path id="Path_37" data-name="Path 37" d="M184.763,61.544c-1.234-.984-4.258.825-6.789,3.994s-3.592,6.535-2.357,7.517,4.258-.825,6.789-3.993a12.261,12.261,0,0,0,2.839-5.969A1.777,1.777,0,0,0,184.763,61.544Z" fill="#ee6c17"/>
          <path id="Path_38" data-name="Path 38" d="M151.392,74.118c-1.06-.708-2.271-.737-2.73-.04-.454.66.089,1.793,1.151,2.464,1.063.707,2.273.738,2.729.042a1.047,1.047,0,0,0,.143-.489A2.692,2.692,0,0,0,151.392,74.118Z" fill="#ee6c17"/>
          <path id="Path_39" data-name="Path 39" d="M160.92,74.734c-1.133.583-1.762,1.612-1.421,2.318.378.708,1.585.815,2.716.268A2.463,2.463,0,0,0,163.72,75.5a.425.425,0,0,0,.016-.1.886.886,0,0,0-.1-.4C163.256,74.3,162.049,74.191,160.92,74.734Z" fill="#ee6c17"/>
          <path id="Path_40" data-name="Path 40" d="M141.456,58.556c1.007-.36,1.578-1.738,1.691-3.75l.009-.178a25.664,25.664,0,0,0-1.671-9.394c-2.285-6.563-5.966-11.225-8.25-10.442s-2.278,6.761-.029,13.323C135.49,54.678,139.173,59.34,141.456,58.556Z" fill="#ee6c17"/>
          <path id="Path_41" data-name="Path 41" d="M156.578,66.226a2.556,2.556,0,0,0-2.534,2.56,2.594,2.594,0,0,0,2.229,2.868,2.741,2.741,0,0,0,.305-5.428Z" fill="#ee6c17"/>
          <path id="Path_42" data-name="Path 42" d="M168.965,69.9a6.458,6.458,0,0,0,1.083-3.061,2.434,2.434,0,0,0-.929-2.336c-1.315-.875-3.5.182-4.873,2.312s-1.467,4.523-.153,5.4S167.592,72.03,168.965,69.9Z" fill="#ee6c17"/>
          <path id="Path_43" data-name="Path 43" d="M149.707,69a6.46,6.46,0,0,0-.731-3.165c-1.125-2.27-3.177-3.528-4.582-2.847-1.407.72-1.578,3.109-.453,5.38s3.176,3.53,4.581,2.848A2.475,2.475,0,0,0,149.707,69Z" fill="#ee6c17"/>
          <path id="Path_44" data-name="Path 44" d="M162.512,55.867c.231-4.1-1.965-7.572-4.915-7.74s-5.519,3.037-5.752,7.172c-.267,4.1,1.927,7.571,4.913,7.741C159.708,63.207,162.278,60,162.512,55.867Z" fill="#ee6c17"/>
          <path id="Path_45" data-name="Path 45" d="M129.174,58.431c-1.337.839-.663,4.3,1.5,7.738s4.958,5.571,6.293,4.734a1.67,1.67,0,0,0,.653-1.486c0-.029.006-.061.008-.093a11.81,11.81,0,0,0-2.158-6.155C133.311,59.732,130.511,57.594,129.174,58.431Z" fill="#ee6c17"/>
        </g>
      </g>
      <path id="Path_46" data-name="Path 46" d="M149.264,88.628l2.082,17.488a.38.38,0,0,0,.624.245L165.251,95a.382.382,0,0,0-.106-.644l-15.363-6.127A.38.38,0,0,0,149.264,88.628Z" fill="#0c5568"/>
    </g>
  </g>
</svg>
