<svg xmlns="http://www.w3.org/2000/svg" width="54" height="54" viewBox="0 0 54 54">
  <g id="linkedin" transform="translate(-813 -2048)">
    <circle id="ellipse" cx="26" cy="26" r="26" transform="translate(814 2049)" fill="none" stroke="#fe9635" stroke-width="2"/>
    <g id="icon" transform="translate(829.571 2064.978)">
      <g id="Group_3" data-name="Group 3">
        <g id="Group_2" data-name="Group 2">
          <rect id="Rectangle_1" data-name="Rectangle 1" width="4.297" height="13.502" transform="translate(1.676 6.52)" fill="#fff"/>
          <path id="Path_2" data-name="Path 2" d="M20.074,7.753a4.525,4.525,0,0,0-3.58-1.546A4.976,4.976,0,0,0,15,6.418a3.338,3.338,0,0,0-1.133.592,5.578,5.578,0,0,0-.736.708,5.8,5.8,0,0,0-.508.72V6.52H8.342l.013.654q.013.654.013,4.032t-.026,8.815h4.284V12.487a3.415,3.415,0,0,1,.142-1.1,2.889,2.889,0,0,1,.827-1.164,2.047,2.047,0,0,1,1.374-.47,1.824,1.824,0,0,1,1.646.81,4.084,4.084,0,0,1,.527,2.24v7.221h4.285V12.283A6.685,6.685,0,0,0,20.074,7.753Z" fill="#fff"/>
          <path id="Path_3" data-name="Path 3" d="M3.85.022A2.389,2.389,0,0,0,2.1.683a2.245,2.245,0,0,0-.67,1.67A2.284,2.284,0,0,0,2.08,4.013,2.292,2.292,0,0,0,3.8,4.681h.026a2.388,2.388,0,0,0,1.764-.668,2.207,2.207,0,0,0,.658-1.661A2.329,2.329,0,0,0,5.581.683,2.317,2.317,0,0,0,3.85.022Z" fill="#fff"/>
        </g>
      </g>
    </g>
  </g>
</svg>
