<svg xmlns="http://www.w3.org/2000/svg" width="54" height="54" viewBox="0 0 54 54">
  <g id="twitter" transform="translate(-573 -2048)">
    <circle id="ellipse" cx="26" cy="26" r="26" transform="translate(574 2049)" fill="none" stroke="#fe9635" stroke-width="2"/>
    <g id="icon" transform="translate(585.842 2061.779)">
      <g id="Group_4" data-name="Group 4">
        <path id="Path_5" data-name="Path 5" d="M8.407,18.336a4.91,4.91,0,0,1-4.592-3.157,5.221,5.221,0,0,0,2.115-.057L6,15.092A4.943,4.943,0,0,1,2.8,13a4.166,4.166,0,0,1-.724-2.418,5.19,5.19,0,0,0,2.222.555A4.576,4.576,0,0,1,2.261,8.376a4.209,4.209,0,0,1,.556-3.3A14.556,14.556,0,0,0,12.994,9.835a3.977,3.977,0,0,0-.083-.514,4.15,4.15,0,0,1,.724-2.972,4.774,4.774,0,0,1,3.339-2.053A5.071,5.071,0,0,1,21.3,5.563a.252.252,0,0,0,.261.072,10.321,10.321,0,0,0,2.867-1.027l.066-.031h.034a4.763,4.763,0,0,1-2.112,2.474,10.253,10.253,0,0,0,2.746-.683h0c-.189.226-.375.462-.556.683a9.351,9.351,0,0,1-1.793,1.57.147.147,0,0,0-.085.144,11.393,11.393,0,0,1-.088,2.017,12.628,12.628,0,0,1-1.274,4.052,13.144,13.144,0,0,1-2.667,3.593,13.52,13.52,0,0,1-6.781,3.487,16.558,16.558,0,0,1-2.744.3A14.823,14.823,0,0,1,1.275,20.26l-.117-.071a10.774,10.774,0,0,0,4.932-.626,10.02,10.02,0,0,0,2.317-1.228Z" fill="#fff"/>
      </g>
    </g>
  </g>
</svg>
