<svg xmlns="http://www.w3.org/2000/svg" width="54" height="54" viewBox="0 0 54 54">
  <g id="youtube" transform="translate(-893 -2048)">
    <circle id="ellipse" cx="26" cy="26" r="26" transform="translate(894 2049)" fill="none" stroke="#fe9635" stroke-width="2"/>
    <g id="icon" transform="translate(907 2063.087)">
      <g id="Group_1" data-name="Group 1">
        <path id="Path_1" data-name="Path 1" d="M25.551,6.808A3.277,3.277,0,0,0,22.74,4.27,87.945,87.945,0,0,0,13,3.913a87.96,87.96,0,0,0-9.737.357A3.277,3.277,0,0,0,.458,6.808,27.483,27.483,0,0,0,0,12.912a27.481,27.481,0,0,0,.453,6.1,3.274,3.274,0,0,0,2.81,2.538A87.815,87.815,0,0,0,13,21.912a87.8,87.8,0,0,0,9.736-.358,3.275,3.275,0,0,0,2.81-2.538,27.452,27.452,0,0,0,.455-6.1A27.48,27.48,0,0,0,25.551,6.808ZM9.645,16.921V8.38l8.266,4.283Z" fill="#fff"/>
      </g>
    </g>
  </g>
</svg>
