<svg xmlns="http://www.w3.org/2000/svg" width="86.001" height="75" viewBox="0 0 86.001 75">
  <g id="logo" transform="translate(-246 -24)">
    <g id="logo-2" data-name="logo" transform="translate(203.54 4.86)">
      <g id="Group_41" data-name="Group 41">
        <g id="Group_36" data-name="Group 36">
          <path id="Path_47" data-name="Path 47" d="M48.658,82c.42.07.792.164.955.164A1.48,1.48,0,0,0,50.243,82a2.036,2.036,0,0,1,.629-.14c1.072,0,2.144,2.152,2.144,3.111a1.121,1.121,0,0,1-1.142,1.1c-1.328,0-2.074-1.848-3.1-1.848a.844.844,0,0,0-.839.8c0,1.5,5.127,1.778,5.127,5.4,0,2.2-2.121,3.719-4.544,3.719a12.174,12.174,0,0,1-1.724-.164c-.583-.07-1.1-.14-1.235-.14a3.1,3.1,0,0,0-.466.047,2.585,2.585,0,0,1-.443.046,1.118,1.118,0,0,1-1.025-.444,5.235,5.235,0,0,1-1.165-2.878c0-.608.21-1.1.886-1.1,1.025,0,1.957,2.316,3.262,2.316.466,0,.909-.234.909-.749,0-1.38-4.568-1.544-4.568-5.4,0-2.339,1.911-3.812,4.311-3.812A6.891,6.891,0,0,1,48.658,82Z" fill="#0c5568"/>
          <path id="Path_48" data-name="Path 48" d="M65.761,88.222c0,4.117,1.4,1.871,1.4,3.134,0,1.333-1.817,2.784-3.519,2.784-1.841,0-1.887-1.193-2.47-1.193-.28,0-.583.3-1.1.585a4.246,4.246,0,0,1-2.283.608c-1.934,0-3.868-1.029-3.868-3.345,0-1.661,1.584-3.72,5.686-3.72.723,0,1.049.047,1.049-.8,0-.772-.024-2.386-1.1-2.386-1.4,0-1.538,2.526-3.612,2.526a1.258,1.258,0,0,1-1.305-1.286c0-1.988,3.938-3.275,6.152-3.275,1.328,0,4.963.515,4.963,4.023Zm-6.99,2.058c0,.608.326,1.263,1,1.263.886,0,.955-.959.955-1.661,0-.515.023-1.1-.629-1.1A1.43,1.43,0,0,0,58.771,90.28Z" fill="#0c5568"/>
          <path id="Path_49" data-name="Path 49" d="M73.617,88.76c0,1.567.653,1.941,1.282,1.941.723,0,1.142-.538,1.561-.538.466,0,.792.655.792,1.076,0,1.544-2.657,2.9-5.01,2.9a3.935,3.935,0,0,1-4.171-4.234V85.087c0-.421,0-.585-.116-.655a3.022,3.022,0,0,0-.909-.023c-.606,0-.909.023-1.025-.094-.163-.164-.117-.4-.117-.935,0-.327-.07-.585.21-.772l5.313-3.392c.536-.327.513-.257,1.212-.257.932,0,.979-.093.979.982a7.217,7.217,0,0,0,.07,1.731c.07.187.233.187.839.187h1.631c1,0,1,.07,1,1.123,0,1.333-.163,1.427-1.072,1.427H74.479c-.816,0-.862.023-.862.865Z" fill="#0c5568"/>
          <path id="Path_50" data-name="Path 50" d="M77.362,88.409c0-4.187,3.658-6.55,7.5-6.55a6.212,6.212,0,0,1,6.408,6.105c0,3.836-4.1,6.175-7.526,6.175C80.3,94.14,77.362,92.1,77.362,88.409Zm6.5-3.789a1.227,1.227,0,0,0-1.142,1.4c.093,1.474.513,5.076,2.121,5.17.885.047,1.072-.7,1.072-1.45C85.913,88.69,85.447,84.62,83.863,84.62Z" fill="#0c5568"/>
          <path id="Path_51" data-name="Path 51" d="M97.953,82c.42.07.792.164.955.164A1.479,1.479,0,0,0,99.537,82a2.035,2.035,0,0,1,.629-.14c1.072,0,2.143,2.152,2.143,3.111a1.121,1.121,0,0,1-1.142,1.1c-1.328,0-2.074-1.848-3.1-1.848a.843.843,0,0,0-.839.8c0,1.5,5.126,1.778,5.126,5.4,0,2.2-2.12,3.719-4.544,3.719a12.174,12.174,0,0,1-1.724-.164c-.582-.07-1.095-.14-1.235-.14a3.1,3.1,0,0,0-.466.047,2.59,2.59,0,0,1-.443.046,1.118,1.118,0,0,1-1.025-.444,5.234,5.234,0,0,1-1.165-2.878c0-.608.209-1.1.885-1.1,1.025,0,1.958,2.316,3.262,2.316.466,0,.909-.234.909-.749,0-1.38-4.567-1.544-4.567-5.4,0-2.339,1.911-3.812,4.311-3.812A6.888,6.888,0,0,1,97.953,82Z" fill="#0c5568"/>
          <path id="Path_52" data-name="Path 52" d="M118.131,90.327c0,1.989,1.142,1.5,1.142,2.41,0,1.356-2.983,1.333-3.845,1.333-.722,0-3.542,0-3.542-1.193,0-.678.653-.655.839-1.848a13.01,13.01,0,0,0,.163-2.339c0-1.17-.023-3.368-1.678-3.368-1.421,0-1.375,1.216-1.375,2.269V90.3c0,1.942.932,1.544.932,2.386,0,1.357-2.656,1.38-3.542,1.38-3.332,0-4.1-.7-4.1-1.427,0-.935.909-.514,1.3-2.035a34.692,34.692,0,0,0,.28-5.474c0-1.053-.07-2.128-.093-3.181-.047-1.661-1.445-1.076-1.445-2.175,0-1.871,6.059-2.362,6.082-2.362.7,0,.746.21.746.888l-.14,4.445c-.023.444-.047,1.193.559,1.193.7,0,1-2.082,3.612-2.082,4.287,0,3.984,4.046,4.008,4.7Z" fill="#0c5568"/>
          <g id="Group_35" data-name="Group 35">
            <path id="Path_53" data-name="Path 53" d="M127.085,89.485c0,2.76,1.375,1.755,1.375,2.994,0,1.591-2.96,1.591-4.008,1.591-4.008,0-4.171-.912-4.171-1.473,0-.842.955-.889,1.235-1.614a15.441,15.441,0,0,0,.093-5.076c-.21-.818-1.4-.561-1.4-1.614,0-1.661,5.919-2.362,6.152-2.362.7,0,.722.538.722,1.029Z" fill="#0c5568"/>
            <path id="Path_54" data-name="Path 54" d="M125.022,75.817a4.962,4.962,0,0,0-2.554.642c-1.829.979-2.838,2.75-2.282,3.958.587,1.208,2.516,1.346,4.347.369s2.839-2.749,2.283-3.956A1.971,1.971,0,0,0,125.022,75.817Z" fill="#0c5568"/>
          </g>
        </g>
        <g id="Group_40" data-name="Group 40">
          <g id="Group_39" data-name="Group 39">
            <g id="Group_37" data-name="Group 37">
              <path id="Path_55" data-name="Path 55" d="M94.667,35.636a2.949,2.949,0,0,1,.192,1.287,4.707,4.707,0,0,1-.774,2.234A4.83,4.83,0,0,1,92.812,40.5l.088.006q.7.044,1.395.1a4.63,4.63,0,0,1,1.195-.182l.087,0a2.21,2.21,0,0,1-.147-.589,6.177,6.177,0,0,1,1.41-3.87C96.185,35.867,95.459,35.752,94.667,35.636Z" fill="#ee6c17"/>
              <path id="Path_56" data-name="Path 56" d="M79.977,40.057A4.5,4.5,0,0,1,78.351,38.2a3.65,3.65,0,0,1,.106-3.966q-1.4-.036-2.856-.041l.026.04a7.461,7.461,0,0,1,1.361,4.058c0,.025,0,.052-.006.083a2.538,2.538,0,0,1-.25.991,5.692,5.692,0,0,1,2.123.743l.2-.013C79.362,40.08,79.67,40.068,79.977,40.057Z" fill="#ee6c17"/>
              <path id="Path_57" data-name="Path 57" d="M83.806,37.871a2.633,2.633,0,0,1,1.452-2.242,3.8,3.8,0,0,1-1.375-1c-.042-.048-.082-.1-.123-.148q-.835-.055-1.7-.1a4.8,4.8,0,0,1,1.065,1.429,4.647,4.647,0,0,1,.518,2.308,2.837,2.837,0,0,1-.446,1.425,2.992,2.992,0,0,1,.878.4l.017.012.017.012.052.039.47,0A2.709,2.709,0,0,1,83.806,37.871Z" fill="#ee6c17"/>
              <path id="Path_58" data-name="Path 58" d="M113.09,56.827a5.174,5.174,0,0,0-2.646-2.51,22.047,22.047,0,0,0-4.838-1.345c-.089-.015-.215.02-.244-.1s.085-.12.158-.148a7.726,7.726,0,0,0,3.217-2.132,7.09,7.09,0,0,0,1.744-3.532,9.877,9.877,0,0,0-.371-4.783,5.574,5.574,0,0,0-1.616-2.633,13.642,13.642,0,0,0-5.972-2.53,10.918,10.918,0,0,1-1.085,1.67l0,0,0,0a10.214,10.214,0,0,1-1.979,1.922,5.98,5.98,0,0,1-.777.474c.154.027.309.054.463.083a1.538,1.538,0,0,1,1.214.887c.256.542.417,1.12.672,1.659.2.823.435,1.637.6,2.47a44.065,44.065,0,0,1,.733,6.217,53.361,53.361,0,0,1,0,5.437,24.157,24.157,0,0,1-.985,6.25c-.047.145-.115.283-.165.427a2.065,2.065,0,0,1-2.19,1.513c-4.124.077-8.246.26-12.369.407q-3.248.115-6.5.241c-1.457.054-2.913.1-4.37.163a5.849,5.849,0,0,1-1.648-.207,1.721,1.721,0,0,1-.942-.843,22.431,22.431,0,0,1-2.632-5.425,31.473,31.473,0,0,1-1.714-10.211c0-.779.1-1.557.154-2.336a2.284,2.284,0,0,0,.072-.28,19.252,19.252,0,0,1,.771-3.374c.145-.46.334-.906.5-1.359.109-.025.146-.121.2-.2a4.092,4.092,0,0,1,2.673-1.775c.57-.138,1.145-.255,1.721-.358a1.373,1.373,0,0,1,.062-.25c-1.443-.1-2.952-1.715-3.9-3.228a9.556,9.556,0,0,1-1.229-2.774,11.042,11.042,0,0,1-1.325.021c-2.039-.139-4.081-.128-6.121-.167-.625-.012-1.248-.044-1.874,0a.517.517,0,0,0-.528.476c-.35,1.589-.688,3.181-1.147,4.744-.076.259-.032.391.279.383.694-.019,1.39,0,2.083-.022a3.377,3.377,0,0,1,1.3.222,1.534,1.534,0,0,1,1.03,1.663c-.123,1.264-.4,2.5-.618,3.748-.246,1.425-.417,2.864-.621,4.3a.986.986,0,0,0-.129.436,28.955,28.955,0,0,0-.1,5.008,24.059,24.059,0,0,0,1.673,6.611c.533,1.4,1.14,2.777,1.674,4.18a1.337,1.337,0,0,1-.125,1.393A1.912,1.912,0,0,1,64,68.033q-1.284.124-2.566.27c-.155.017-.375-.085-.448.115s.056.373.189.524c.387.435.786.86,1.157,1.308.886,1.072,1.822,2.1,2.772,3.111a.8.8,0,0,0,1.11.218,2.75,2.75,0,0,1,.472-.16,38.39,38.39,0,0,1,5.476-.754c1.256-.12,2.52-.164,3.779-.258a.747.747,0,0,1,.782.495c.153.311.3.626.465.93a.7.7,0,0,0,.679.4c1.054-.04,2.108-.086,3.163-.117a33.714,33.714,0,0,1,4.03-.159c.306.027.445-.18.357-.484-.093-.321-.182-.642-.261-.966-.068-.279-.005-.444.338-.448.986-.013,1.972-.047,2.957-.083a.337.337,0,0,1,.4.314,3.26,3.26,0,0,1,.08.952c-.054.462.084.6.55.592,1-.027,2-.028,3-.075,1.581-.075,3.166-.07,4.75-.094.536-.009.784-.171.9-.679.075-.338.182-.667.225-1.017.081-.656.164-.695.816-.819,1.213-.23,2.44-.413,3.628-.737a25.545,25.545,0,0,0,6.512-2.712,9.251,9.251,0,0,0,4.007-4.652A7.206,7.206,0,0,0,113.09,56.827Z" fill="#ee6c17"/>
              <path id="Path_59" data-name="Path 59" d="M87.688,40.105l.651.049a3.03,3.03,0,0,1,.774-.223,3.823,3.823,0,0,1,.494-3.693,4.975,4.975,0,0,1,1-1.137q-.813-.095-1.677-.185a3.745,3.745,0,0,1-1.46.839,2.48,2.48,0,0,1,.622.558,2.753,2.753,0,0,1-.4,3.793Z" fill="#ee6c17"/>
            </g>
            <g id="Group_38" data-name="Group 38">
              <path id="Path_60" data-name="Path 60" d="M95.119,33.263c1.2.573,3.507-1.753,5.166-5.207a14.947,14.947,0,0,0,1.5-5.142c.062-1.11-.165-1.9-.694-2.161-1.2-.572-3.507,1.754-5.166,5.208S93.918,32.671,95.119,33.263Z" fill="#ee6c17"/>
              <path id="Path_61" data-name="Path 61" d="M78.547,41.225c-1.154-.7-2.268-.948-2.477-.582-.231.365.538,1.227,1.689,1.922s2.269.948,2.478.582a.268.268,0,0,0,.027-.124c0-.006,0-.011,0-.017C80.291,42.586,79.565,41.842,78.547,41.225Z" fill="#ee6c17"/>
              <path id="Path_62" data-name="Path 62" d="M93.557,42.076c-1.224.56-2.062,1.332-1.9,1.719.189.389,1.3.263,2.527-.3,1.1-.5,1.886-1.174,1.91-1.591a.282.282,0,0,0-.014-.128C95.9,41.389,94.78,41.515,93.557,42.076Z" fill="#ee6c17"/>
              <path id="Path_63" data-name="Path 63" d="M101.857,33.939c-.68-.543-2.347.455-3.743,2.2s-1.98,3.6-1.3,4.145,2.347-.455,3.743-2.2a6.763,6.763,0,0,0,1.565-3.292A.98.98,0,0,0,101.857,33.939Z" fill="#ee6c17"/>
              <path id="Path_64" data-name="Path 64" d="M83.46,40.874c-.585-.39-1.252-.407-1.505-.022-.25.364.049.989.635,1.359.586.39,1.253.407,1.5.023a.578.578,0,0,0,.079-.269A1.485,1.485,0,0,0,83.46,40.874Z" fill="#ee6c17"/>
              <path id="Path_65" data-name="Path 65" d="M88.712,41.214c-.625.322-.971.889-.783,1.278.208.39.874.449,1.5.148a1.358,1.358,0,0,0,.83-1,.235.235,0,0,0,.009-.056.489.489,0,0,0-.056-.22C90,40.972,89.335,40.914,88.712,41.214Z" fill="#ee6c17"/>
              <path id="Path_66" data-name="Path 66" d="M77.982,32.292c.555-.2.87-.958.932-2.068l.005-.1A14.157,14.157,0,0,0,78,24.945c-1.26-3.619-3.289-6.19-4.548-5.758s-1.256,3.729-.016,7.347C74.693,30.154,76.724,32.724,77.982,32.292Z" fill="#ee6c17"/>
              <path id="Path_67" data-name="Path 67" d="M86.319,36.522a1.409,1.409,0,0,0-1.4,1.412,1.43,1.43,0,0,0,1.229,1.582,1.512,1.512,0,0,0,.168-2.993Z" fill="#ee6c17"/>
              <path id="Path_68" data-name="Path 68" d="M93.148,38.547a3.562,3.562,0,0,0,.6-1.688,1.343,1.343,0,0,0-.512-1.288c-.725-.482-1.93.1-2.686,1.275s-.809,2.494-.084,2.977S92.391,39.722,93.148,38.547Z" fill="#ee6c17"/>
              <path id="Path_69" data-name="Path 69" d="M82.531,38.051a3.563,3.563,0,0,0-.4-1.745c-.62-1.252-1.751-1.946-2.526-1.57-.775.4-.87,1.714-.25,2.967s1.751,1.947,2.525,1.571A1.365,1.365,0,0,0,82.531,38.051Z" fill="#ee6c17"/>
              <path id="Path_70" data-name="Path 70" d="M89.59,30.809c.127-2.26-1.083-4.176-2.71-4.268s-3.043,1.675-3.171,3.955c-.147,2.259,1.062,4.175,2.709,4.269C88.044,34.857,89.461,33.09,89.59,30.809Z" fill="#ee6c17"/>
              <path id="Path_71" data-name="Path 71" d="M71.212,32.223c-.737.463-.365,2.374.827,4.267s2.733,3.072,3.469,2.61a.921.921,0,0,0,.36-.82c0-.016,0-.034,0-.051a6.514,6.514,0,0,0-1.19-3.395C73.492,32.94,71.948,31.762,71.212,32.223Z" fill="#ee6c17"/>
            </g>
          </g>
          <path id="Path_72" data-name="Path 72" d="M82.287,48.876l1.148,9.644a.21.21,0,0,0,.344.135L91.1,52.39a.21.21,0,0,0-.059-.355l-8.469-3.379A.209.209,0,0,0,82.287,48.876Z" fill="#0c5568"/>
        </g>
      </g>
    </g>
    <path id="Color_Overlay" data-name="Color Overlay" d="M299.628,98.836c-.582-.07-1.094-.14-1.235-.14a3.135,3.135,0,0,0-.465.047,2.58,2.58,0,0,1-.443.047,1.118,1.118,0,0,1-1.026-.445,5.233,5.233,0,0,1-1.165-2.877c0-.608.21-1.1.885-1.1,1.026,0,1.958,2.317,3.263,2.317.466,0,.909-.234.909-.749,0-1.38-4.568-1.543-4.568-5.4,0-2.339,1.912-3.812,4.311-3.812a6.9,6.9,0,0,1,1.4.14c.42.069.793.164.956.164a1.478,1.478,0,0,0,.629-.164,2.034,2.034,0,0,1,.629-.14c1.072,0,2.144,2.152,2.144,3.11a1.12,1.12,0,0,1-1.142,1.1c-1.328,0-2.073-1.848-3.1-1.848a.844.844,0,0,0-.839.8c0,1.5,5.126,1.778,5.126,5.4,0,2.2-2.12,3.719-4.544,3.719A12.159,12.159,0,0,1,299.628,98.836ZM280.9,93.269c0-4.187,3.658-6.549,7.5-6.549a6.211,6.211,0,0,1,6.408,6.1c0,3.837-4.1,6.176-7.527,6.176C283.837,99,280.9,96.965,280.9,93.269Zm5.359-2.386c.093,1.474.513,5.076,2.12,5.17.886.047,1.072-.7,1.072-1.45,0-1.053-.466-5.123-2.05-5.123A1.227,1.227,0,0,0,286.26,90.883Zm-14.65,3.883V89.948c0-.421,0-.585-.116-.655a3.017,3.017,0,0,0-.909-.023c-.606,0-.909.023-1.025-.094-.163-.164-.116-.4-.116-.936,0-.327-.07-.585.21-.771l5.313-3.392c.535-.328.513-.257,1.211-.257.932,0,.978-.094.978.982a7.228,7.228,0,0,0,.07,1.732c.07.187.234.187.839.187H279.7c1,0,1,.07,1,1.122,0,1.334-.163,1.427-1.072,1.427h-1.607c-.816,0-.863.023-.863.865V93.62c0,1.567.653,1.941,1.282,1.941.723,0,1.142-.538,1.561-.538.466,0,.793.655.793,1.076,0,1.543-2.657,2.9-5.01,2.9A3.935,3.935,0,0,1,271.61,94.766Zm-6.9,3.04c-.28,0-.583.3-1.1.585a4.248,4.248,0,0,1-2.283.608c-1.934,0-3.868-1.03-3.868-3.345,0-1.66,1.584-3.719,5.685-3.719.723,0,1.048.047,1.048-.8,0-.772-.023-2.386-1.1-2.386-1.4,0-1.538,2.526-3.612,2.526a1.258,1.258,0,0,1-1.3-1.287c0-1.988,3.938-3.274,6.152-3.274,1.328,0,4.964.515,4.964,4.023v2.34c0,4.116,1.4,1.87,1.4,3.134,0,1.334-1.818,2.784-3.519,2.784C265.34,99,265.293,97.807,264.711,97.807Zm-2.4-2.666c0,.607.326,1.263,1,1.263.886,0,.956-.959.956-1.66,0-.515.022-1.1-.63-1.1A1.43,1.43,0,0,0,262.31,95.141Zm-11.976,3.7c-.583-.07-1.1-.14-1.236-.14a3.16,3.16,0,0,0-.466.047,2.56,2.56,0,0,1-.443.047,1.116,1.116,0,0,1-1.024-.445A5.227,5.227,0,0,1,246,95.467c0-.608.21-1.1.886-1.1,1.025,0,1.958,2.317,3.262,2.317.466,0,.909-.234.909-.749,0-1.38-4.568-1.543-4.568-5.4,0-2.339,1.912-3.812,4.311-3.812a6.916,6.916,0,0,1,1.4.14c.419.069.792.164.956.164a1.478,1.478,0,0,0,.628-.164,2.039,2.039,0,0,1,.629-.14c1.073,0,2.144,2.152,2.144,3.11a1.12,1.12,0,0,1-1.141,1.1c-1.328,0-2.075-1.848-3.1-1.848a.844.844,0,0,0-.839.8c0,1.5,5.126,1.778,5.126,5.4,0,2.2-2.12,3.719-4.544,3.719A12.148,12.148,0,0,1,250.334,98.836Zm73.487-1.38c0-.842.955-.889,1.235-1.615a15.431,15.431,0,0,0,.094-5.076c-.211-.818-1.4-.562-1.4-1.614,0-1.661,5.918-2.362,6.152-2.362.7,0,.722.538.722,1.03v6.526c0,2.76,1.375,1.754,1.375,2.994,0,1.59-2.96,1.59-4.009,1.59C323.984,98.93,323.821,98.017,323.821,97.457Zm-4.853,1.473c-.722,0-3.542,0-3.542-1.193,0-.679.652-.654.839-1.848a13.038,13.038,0,0,0,.163-2.339c0-1.17-.023-3.369-1.678-3.369-1.422,0-1.375,1.217-1.375,2.269v2.714c0,1.942.932,1.544.932,2.387,0,1.356-2.656,1.38-3.542,1.38-3.333,0-4.1-.7-4.1-1.427,0-.935.908-.514,1.3-2.035a34.672,34.672,0,0,0,.28-5.474c0-1.052-.07-2.129-.093-3.181-.047-1.661-1.444-1.076-1.444-2.175,0-1.872,6.058-2.363,6.081-2.363.7,0,.746.21.746.888l-.14,4.445c-.023.445-.047,1.192.559,1.192.7,0,1-2.082,3.613-2.082,4.288,0,3.984,4.046,4.008,4.7l.093,3.766c0,1.989,1.142,1.5,1.142,2.41,0,1.311-2.787,1.333-3.751,1.333Zm4.757-13.652c-.555-1.209.454-2.98,2.282-3.958a4.958,4.958,0,0,1,2.553-.642,1.97,1.97,0,0,1,1.795,1.012c.556,1.207-.452,2.98-2.282,3.956a5.132,5.132,0,0,1-2.362.646A2.068,2.068,0,0,1,323.725,85.278Zm-42.994-6.585c-.166-.305-.312-.619-.465-.931a.748.748,0,0,0-.782-.5c-1.258.094-2.522.138-3.778.258a38.344,38.344,0,0,0-5.477.754,2.722,2.722,0,0,0-.472.16.8.8,0,0,1-1.111-.218c-.949-1.013-1.886-2.039-2.772-3.111-.37-.448-.77-.873-1.156-1.309-.133-.15-.262-.328-.189-.524.052-.143.18-.131.305-.12a.706.706,0,0,0,.143.005q1.283-.146,2.566-.271a1.911,1.911,0,0,0,1.313-.727,1.338,1.338,0,0,0,.125-1.393c-.534-1.4-1.14-2.777-1.674-4.18a24.041,24.041,0,0,1-1.673-6.611,28.894,28.894,0,0,1,.1-5.008.988.988,0,0,1,.129-.437c.2-1.433.376-2.871.622-4.3.215-1.248.495-2.484.617-3.748a1.533,1.533,0,0,0-1.03-1.663,3.388,3.388,0,0,0-1.3-.223c-.694.024-1.39,0-2.083.022-.311.008-.355-.123-.279-.382.458-1.562.8-3.154,1.147-4.744a.517.517,0,0,1,.528-.476c.625-.041,1.248-.008,1.873,0,2.04.039,4.082.029,6.122.167a11.234,11.234,0,0,0,1.325-.022,9.543,9.543,0,0,0,1.229,2.774c.948,1.513,2.457,3.128,3.9,3.228a1.321,1.321,0,0,0-.062.25c-.576.1-1.15.22-1.721.357a4.091,4.091,0,0,0-2.673,1.775c-.05.081-.087.178-.2.2-.169.453-.358.9-.5,1.359a19.216,19.216,0,0,0-.771,3.374,2.242,2.242,0,0,1-.072.28c-.054.778-.153,1.557-.154,2.335A31.469,31.469,0,0,0,274.1,65.322a22.4,22.4,0,0,0,2.632,5.424,1.718,1.718,0,0,0,.942.843,5.828,5.828,0,0,0,1.647.207c1.457-.062,2.913-.109,4.37-.163q3.247-.12,6.5-.241c4.124-.147,8.246-.33,12.37-.407a2.065,2.065,0,0,0,2.191-1.513c.049-.145.119-.283.166-.427a24.163,24.163,0,0,0,.985-6.251,53.182,53.182,0,0,0,0-5.437,44.018,44.018,0,0,0-.733-6.216c-.163-.833-.4-1.648-.6-2.471-.256-.539-.417-1.117-.673-1.659a1.534,1.534,0,0,0-1.214-.887c-.154-.03-.309-.056-.463-.083a5.976,5.976,0,0,0,.778-.474,10.2,10.2,0,0,0,1.979-1.922l0,0,0,0a10.966,10.966,0,0,0,1.085-1.67,13.653,13.653,0,0,1,5.972,2.53,5.577,5.577,0,0,1,1.616,2.633,9.89,9.89,0,0,1,.372,4.783,7.1,7.1,0,0,1-1.744,3.533,7.737,7.737,0,0,1-3.217,2.132c-.074.028-.185.034-.158.149s.156.089.245.1a22.061,22.061,0,0,1,4.838,1.345,5.171,5.171,0,0,1,2.646,2.51,7.207,7.207,0,0,1,.233,6.223,9.25,9.25,0,0,1-4.007,4.652,25.557,25.557,0,0,1-6.512,2.712c-1.189.324-2.416.508-3.629.737-.652.124-.735.163-.815.819-.043.349-.15.679-.226,1.017-.113.508-.361.67-.9.679-1.584.024-3.169.019-4.75.094-1,.047-2,.048-3,.075-.465.013-.6-.13-.55-.592a3.275,3.275,0,0,0-.08-.952.337.337,0,0,0-.4-.313c-.986.036-1.971.07-2.957.083-.344,0-.407.169-.338.448.079.324.168.646.261.967.087.3-.052.511-.357.483a33.846,33.846,0,0,0-4.03.159c-1.055.031-2.109.076-3.163.117h-.033A.7.7,0,0,1,280.732,78.692Zm6.242-15.313-1.147-9.644a.209.209,0,0,1,.285-.22l8.469,3.379a.211.211,0,0,1,.059.355l-7.322,6.265a.2.2,0,0,1-.135.05A.209.209,0,0,1,286.974,63.38ZM295.2,48.656c-.166-.388.672-1.16,1.9-1.72s2.339-.687,2.526-.3a.286.286,0,0,1,.014.128c-.024.418-.814,1.087-1.91,1.592a5.1,5.1,0,0,1-1.933.522C295.488,48.88,295.274,48.807,295.2,48.656Zm-13.9-1.23c-1.151-.695-1.921-1.557-1.689-1.922.209-.366,1.322-.114,2.477.581,1.018.617,1.743,1.361,1.719,1.781,0,.005,0,.011,0,.016a.261.261,0,0,1-.028.125c-.064.113-.216.167-.427.167A4.606,4.606,0,0,1,281.3,47.426Zm10.169-.073c-.188-.39.158-.957.783-1.279.623-.3,1.288-.241,1.5.149a.488.488,0,0,1,.056.22.2.2,0,0,1-.009.056,1.359,1.359,0,0,1-.83,1,1.819,1.819,0,0,1-.78.191A.769.769,0,0,1,291.469,47.353Zm-5.34-.282c-.585-.37-.885-1-.634-1.359.253-.384.921-.369,1.5.022a1.486,1.486,0,0,1,.714,1.091.582.582,0,0,1-.079.269.691.691,0,0,1-.607.279A1.674,1.674,0,0,1,286.129,47.071Zm10.311-1.7-.089-.005a4.82,4.82,0,0,0,1.273-1.347,4.706,4.706,0,0,0,.775-2.234,2.957,2.957,0,0,0-.193-1.287c.791.117,1.517.232,2.172.341a6.179,6.179,0,0,0-1.409,3.87,2.2,2.2,0,0,0,.148.589l-.087,0a4.619,4.619,0,0,0-1.194.182Q297.137,45.414,296.44,45.369Zm4.385-.074a.737.737,0,0,1-.471-.148c-.681-.542-.1-2.4,1.3-4.145s3.062-2.745,3.742-2.2a.979.979,0,0,1,.266.854,6.762,6.762,0,0,1-1.565,3.291c-1.136,1.423-2.453,2.35-3.271,2.35Zm-9.6-.33a2.752,2.752,0,0,0,.4-3.793,2.482,2.482,0,0,0-.622-.557,3.755,3.755,0,0,0,1.46-.839q.864.089,1.677.184a4.952,4.952,0,0,0-1,1.137,3.822,3.822,0,0,0-.494,3.693,3.054,3.054,0,0,0-.774.224Zm-10.956-.738a2.546,2.546,0,0,0,.249-.992c0-.031,0-.058.006-.083a7.467,7.467,0,0,0-1.362-4.058l-.025-.04q1.451,0,2.856.041a3.652,3.652,0,0,0-.106,3.966,4.5,4.5,0,0,0,1.627,1.856c-.308.011-.616.022-.923.04l-.2.014A5.685,5.685,0,0,0,280.272,44.227Zm7.381.6-.017-.012-.017-.013a3,3,0,0,0-.878-.4,2.841,2.841,0,0,0,.445-1.426,4.649,4.649,0,0,0-.518-2.308,4.8,4.8,0,0,0-1.066-1.429q.863.046,1.7.1c.04.05.08.1.122.149a3.811,3.811,0,0,0,1.375,1,2.633,2.633,0,0,0-1.452,2.242,2.71,2.71,0,0,0,.828,2.131l-.469,0Zm6.349-.14c-.725-.482-.672-1.8.084-2.977s1.962-1.757,2.686-1.274a1.34,1.34,0,0,1,.512,1.288,3.545,3.545,0,0,1-.6,1.688,2.821,2.821,0,0,1-2.1,1.446A1.046,1.046,0,0,1,294,44.683Zm-4.311-.308a1.43,1.43,0,0,1-1.229-1.582,1.409,1.409,0,0,1,1.4-1.411,1.517,1.517,0,0,1-.1,3Zm-6.8-1.813c-.619-1.253-.525-2.57.25-2.967.775-.376,1.906.319,2.526,1.57a3.557,3.557,0,0,1,.4,1.745,1.365,1.365,0,0,1-.654,1.222,1.037,1.037,0,0,1-.458.1A2.679,2.679,0,0,1,282.891,42.563Zm-7.312-1.212c-1.193-1.894-1.564-3.805-.827-4.268s2.281.717,3.47,2.613a6.5,6.5,0,0,1,1.19,3.394c0,.018,0,.035,0,.051a.923.923,0,0,1-.36.82.692.692,0,0,1-.373.1C277.865,44.06,276.592,42.966,275.578,41.351Zm14.378-1.725c-1.646-.094-2.855-2.01-2.708-4.27.129-2.28,1.545-4.047,3.172-3.955s2.836,2.008,2.709,4.268c-.125,2.225-1.475,3.96-3.051,3.96C290.038,39.629,290,39.628,289.957,39.625Zm9.1-1.416a.918.918,0,0,1-.4-.086c-1.2-.592-.851-3.847.807-7.3s3.965-5.779,5.166-5.207c.529.262.757,1.05.694,2.161a14.937,14.937,0,0,1-1.5,5.142c-1.49,3.1-3.5,5.293-4.765,5.293Zm-22.085-6.816c-1.24-3.618-1.244-6.914.016-7.347s3.288,2.139,4.548,5.758a14.16,14.16,0,0,1,.922,5.18l-.005.1c-.063,1.11-.377,1.869-.932,2.068a.9.9,0,0,1-.29.048C279.968,37.2,278.14,34.746,276.974,31.394Z" fill="#fff"/>
  </g>
</svg>
